# xmcd
#
# Track frame offsets: 
#        150
#        22269
#        42849
#        63550
#        82381
#        103043
#        121539
#        144236
#        165497
#        186705
#        208537
#        228078
#        246825
#        266299
#        285089
#        306718
#
# Disc length: 4365 seconds
#
# Revision: 0
# Processed by: cddbd v1.4PL0 Copyright (c) Steve Scherf et al.
# Submitted via: ExactAudioCopy v0.95a3
#
DISCID=e2110b10
DTITLE=Various Artist - 新悲伤情歌2
DYEAR=2002
DGENRE=Other
TTITLE0=张惠妹-我可以抱你吗
TTITLE1=那英-一笑而过
TTITLE2=孙燕姿-风筝
TTITLE3=莫文蔚-盛夏的果实
TTITLE4=林忆莲-至少还有你
TTITLE5=周迅-飘摇
TTITLE6=梁静茹-爱你不是两三天
TTITLE7=方季惟-爱情的故事
TTITLE8=赵薇-情深深雨朦朦
TTITLE9=彭羚-囚鸟
TTITLE10=裘海正-爱我的人和我爱的人
TTITLE11=李翊君-多情人把灵魂给了谁
TTITLE12=田震-靠近我
TTITLE13=陈明-到哪里找那么好的人
TTITLE14=陶晶莹-太委屈
TTITLE15=许茹芸-独角戏
EXTD=
EXTT0=
EXTT1=
EXTT2=
EXTT3=
EXTT4=
EXTT5=
EXTT6=
EXTT7=
EXTT8=
EXTT9=
EXTT10=
EXTT11=
EXTT12=
EXTT13=
EXTT14=
EXTT15=
PLAYORDER=
